<svg width="50" height="50" viewBox="0 0 50 50" fill="none" xmlns="http://www.w3.org/2000/svg">
<path d="M23 50H4C1.79086 50 0 48.2091 0 46V40H14L14.2041 39.9893C15.1457 39.8938 15.8938 39.1457 15.9893 38.2041C15.9961 38.137 16 38.0689 16 38V12C16 10.8954 15.1046 10 14 10H0V4C0 1.79086 1.79086 0 4 0H23V50ZM12 27V36H0V27H12ZM12 14V23H0V14H12Z" fill="#1EA362"/>
<path d="M46 0C48.2091 0 50 1.79086 50 4V11H36C34.8954 11 34 11.8954 34 13C34 14.1046 34.8954 15 36 15H50V23H36C34.8954 23 34 23.8954 34 25C34 26.1046 34.8954 27 36 27H50V35H36C34.8954 35 34 35.8954 34 37C34 38.1046 34.8954 39 36 39H50V46C50 48.2091 48.2091 50 46 50H26.5723V37.1104C26.5723 36.6354 26.7411 36.1762 27.0488 35.8145L29.8965 32.4678C30.5323 31.7206 30.5323 30.6222 29.8965 29.875L27.0488 26.5283C26.7411 26.1667 26.5724 25.7073 26.5723 25.2324V0H46Z" fill="#ED1C24"/>
</svg>
